<?xml version="1.0" encoding="iso-8859-1"?>
<!-- Generator: Adobe Illustrator 16.0.0, SVG Export Plug-In . SVG Version: 6.00 Build 0)  -->
<!DOCTYPE svg PUBLIC "-//W3C//DTD SVG 1.1//EN" "http://www.w3.org/Graphics/SVG/1.1/DTD/svg11.dtd">
<svg version="1.1" id="Layer_1" xmlns="http://www.w3.org/2000/svg" xmlns:xlink="http://www.w3.org/1999/xlink" x="0px" y="0px"
	 width="612.006px" height="612.006px" viewBox="0 0 612.006 612.006" style="enable-background:new 0 0 612.006 612.006;"
	 xml:space="preserve">
<path d="M488.963,102.103l18.747,18.747l-53.771,53.772l-18.746-18.747L488.963,102.103z M308.633,14.75L285.818,1.249
	L242.402,74.61l22.813,13.501L308.633,14.75z M500.851,392.429L226.974,554.496l37.515,37.514l-18.747,18.748l-40.982-40.981
	c-20.55,16.392-45.84,25.314-72.515,25.314c-31.141,0-60.415-12.126-82.434-34.146c-22.019-22.018-34.144-51.293-34.144-82.433
	c0-26.674,8.924-51.965,25.315-72.515L0,365.015l18.748-18.747l40,40.001L220.82,112.392l22.813,13.501L101.527,366.037
	c9.893-2.686,20.195-4.103,30.72-4.103c26.674,0,51.965,8.924,72.515,25.315L408.231,183.78l18.746,18.748L223.504,406.001
	c24.695,31.038,31.259,71.835,19.71,108.078l244.134-144.47L500.851,392.429z M185.874,550.888L59.867,424.881
	c-11.481,15.427-17.689,34.05-17.689,53.63c0,24.058,9.368,46.675,26.379,63.686c17.012,17.014,39.629,26.383,63.687,26.383
	C151.824,568.579,170.447,562.372,185.874,550.888z M195.931,414.823c-17.012-17.01-39.628-26.379-63.687-26.377
	c-19.58,0-38.204,6.207-53.63,17.688l125.994,125.995C230.751,496.895,227.863,446.757,195.931,414.823z M598.505,304.587
	l-73.362,43.416l13.501,22.814l73.362-43.416L598.505,304.587z"/>
<g>
</g>
<g>
</g>
<g>
</g>
<g>
</g>
<g>
</g>
<g>
</g>
<g>
</g>
<g>
</g>
<g>
</g>
<g>
</g>
<g>
</g>
<g>
</g>
<g>
</g>
<g>
</g>
<g>
</g>
</svg>
